<svg xmlns="http://www.w3.org/2000/svg" xmlns:xlink="http://www.w3.org/1999/xlink" width="80.255" height="39.797" viewBox="0 0 80.255 39.797"><defs><style>.a{fill:url(#a);}.b{fill:url(#b);}.c{fill:url(#c);}</style><linearGradient id="a" x1="-0.748" y1="0.64" x2="3.113" y2="0.211" gradientUnits="objectBoundingBox"><stop offset="0" stop-color="#bf60f2"/><stop offset="1" stop-color="#5e2cf1"/></linearGradient><linearGradient id="b" x1="-1.268" y1="0.718" x2="2.04" y2="0.289" xlink:href="#a"/><linearGradient id="c" x1="-2.683" y1="0.82" x2="1.286" y2="0.391" xlink:href="#a"/></defs><g transform="translate(-681.576 -402.135)"><path class="a" d="M371.128,245.135l-2.134,7.963H386.25l2.134-7.963Zm1.82,31.834,2.637-9.842h-10.35l-4.771,17.8h17.943l2.134-7.963Zm11.963-20.519h-6.465l.012-.046h-10.35l-1.987,7.417h16.815Z" transform="translate(321.111 157)"/><path class="b" d="M538.626,251.587a5.607,5.607,0,0,0-.782-3.5,5.493,5.493,0,0,0-3.413-2.261q-2.459-.686-9.956-.688h-7.744L514.6,253.1h23.8Q538.57,252.173,538.626,251.587Zm-14.44,16.563c-.712,2.656-2.448,8.479-2.952,9.074s-1.5.9-2.993.9l2.946-11h-10.35l-4.771,17.8h13.056a30,30,0,0,0,5.663-.4,9.809,9.809,0,0,0,3.478-1.426,7.854,7.854,0,0,0,2.515-2.828,38.051,38.051,0,0,0,2.424-7.165l1.6-5.983H524.461ZM537.655,256.4H527.33c-.034.143-.077.3-.125.482l-1.858,6.935h10.346l1.246-4.648Q537.346,257.65,537.655,256.4Zm-13.593,0h-10.35l-1.987,7.417h10.35Z" transform="translate(196.425 157)"/><path class="c" d="M730.05,284.932H740.4l4.771-17.8h-10.35Zm7.644-28.528-1.987,7.417h10.35l1.987-7.417Zm-3.1-11.269-2.134,7.963h22.617l2.134-7.963Z" transform="translate(4.621 157)"/></g></svg>